<svg width="205" height="134" viewBox="0 0 205 134" fill="none" xmlns="http://www.w3.org/2000/svg">
<ellipse cx="28.8333" cy="28.5885" rx="28" ry="28.3832" fill="#9D90FA" fill-opacity="0.25"/>
<path d="M38.4336 27.755H28.6555V17.843C28.6555 17.7211 28.5571 17.6213 28.4368 17.6213H27.7258C26.2911 17.6198 24.8701 17.9055 23.5445 18.462C22.219 19.0185 21.0148 19.8349 20.0012 20.8643C19.0033 21.8728 18.2083 23.0683 17.6606 24.3844C17.0918 25.7509 16.802 27.2006 16.802 28.6974C16.802 30.1941 17.0918 31.641 17.6606 33.0075C18.2102 34.3241 18.9977 35.5104 20.0012 36.5277C21.0047 37.5449 22.1723 38.3432 23.4739 38.9003C24.8196 39.4791 26.2668 39.776 27.7286 39.7735C29.1633 39.7749 30.5843 39.4892 31.9099 38.9327C33.2354 38.3762 34.4396 37.5598 35.4532 36.5305C36.4567 35.5132 37.2442 34.3297 37.7938 33.0103C38.3647 31.6462 38.6577 30.1792 38.6551 28.6974V27.9767C38.6524 27.8547 38.554 27.755 38.4336 27.755ZM40.8372 26.2166L40.7661 25.435C40.5336 22.8849 39.418 20.479 37.6188 18.6635C35.8213 16.8428 33.4525 15.7163 30.9223 15.4787L30.1485 15.4066C30.02 15.3955 29.9106 15.4953 29.9106 15.6256V26.261C29.9106 26.3829 30.009 26.4827 30.1293 26.4827L40.6184 26.455C40.7469 26.4522 40.8481 26.3441 40.8372 26.2166Z" fill="#9D90FA"/>
<path d="M147.833 19.657L151.833 15.657L155.833 19.657" stroke="#0049C6" stroke-width="2" stroke-linecap="round" stroke-linejoin="round"/>
<path d="M151.833 15.657V25.9861" stroke="#0049C6" stroke-width="2" stroke-linecap="round" stroke-linejoin="round"/>
<path d="M169.088 16.174V26.3558H166.936V18.2173H166.876L164.544 19.679V17.7699L167.065 16.174H169.088ZM171.354 24.5661V22.8707L175.605 16.174H177.066V18.5206H176.201L173.522 22.7614V22.8409H179.562V24.5661H171.354ZM176.241 26.3558V24.049L176.281 23.2983V16.174H178.299V26.3558H176.241ZM186.57 24.4467V23.9098C186.57 23.5021 186.656 23.1276 186.828 22.7862C187.004 22.4415 187.257 22.1664 187.589 21.9609C187.924 21.7521 188.331 21.6477 188.812 21.6477C189.299 21.6477 189.708 21.7505 190.04 21.956C190.375 22.1615 190.626 22.4366 190.795 22.7813C190.968 23.1226 191.054 23.4988 191.054 23.9098V24.4467C191.054 24.8544 190.968 25.2306 190.795 25.5753C190.623 25.9167 190.37 26.1901 190.035 26.3956C189.7 26.6044 189.292 26.7088 188.812 26.7088C188.325 26.7088 187.915 26.6044 187.584 26.3956C187.252 26.1901 187 25.9167 186.828 25.5753C186.656 25.2306 186.57 24.8544 186.57 24.4467ZM188.016 23.9098V24.4467C188.016 24.6821 188.073 24.9041 188.185 25.1129C188.301 25.3217 188.51 25.4261 188.812 25.4261C189.113 25.4261 189.319 25.3234 189.428 25.1179C189.541 24.9124 189.597 24.6887 189.597 24.4467V23.9098C189.597 23.6679 189.544 23.4425 189.438 23.2337C189.332 23.0249 189.123 22.9205 188.812 22.9205C188.513 22.9205 188.306 23.0249 188.19 23.2337C188.074 23.4425 188.016 23.6679 188.016 23.9098ZM181.344 18.62V18.0831C181.344 17.6721 181.432 17.2959 181.608 16.9546C181.784 16.6099 182.037 16.3348 182.369 16.1293C182.703 15.9238 183.108 15.821 183.582 15.821C184.072 15.821 184.483 15.9238 184.815 16.1293C185.146 16.3348 185.398 16.6099 185.57 16.9546C185.743 17.2959 185.829 17.6721 185.829 18.0831V18.62C185.829 19.031 185.741 19.4072 185.565 19.7486C185.393 20.09 185.139 20.3634 184.805 20.5689C184.473 20.7711 184.066 20.8722 183.582 20.8722C183.098 20.8722 182.688 20.7694 182.354 20.5639C182.022 20.3551 181.77 20.0817 181.598 19.7436C181.429 19.4022 181.344 19.0277 181.344 18.62ZM182.801 18.0831V18.62C182.801 18.862 182.857 19.0857 182.97 19.2912C183.086 19.4967 183.29 19.5994 183.582 19.5994C183.887 19.5994 184.094 19.4967 184.203 19.2912C184.316 19.0857 184.372 18.862 184.372 18.62V18.0831C184.372 17.8412 184.319 17.6158 184.213 17.407C184.107 17.1982 183.897 17.0938 183.582 17.0938C183.287 17.0938 183.083 17.1998 182.97 17.4119C182.857 17.6241 182.801 17.8478 182.801 18.0831ZM182.001 26.3558L189.001 16.174H190.303L183.303 26.3558H182.001Z" fill="#0049C6"/>
<path d="M147.413 36.8535V35.916H153.958V36.8535H151.214V44.6433H150.157V36.8535H147.413ZM156.459 40.7058V44.6433H155.453V35.916H156.459V39.1206H156.544C156.697 38.7825 156.927 38.514 157.234 38.3152C157.544 38.1135 157.956 38.0126 158.47 38.0126C158.916 38.0126 159.307 38.1021 159.642 38.2811C159.977 38.4572 160.237 38.7285 160.422 39.095C160.609 39.4587 160.703 39.9217 160.703 40.4842V44.6433H159.697V40.5524C159.697 40.0325 159.562 39.6305 159.292 39.3464C159.025 39.0595 158.655 38.916 158.18 38.916C157.851 38.916 157.555 38.9856 157.294 39.1248C157.035 39.264 156.831 39.4672 156.68 39.7342C156.532 40.0013 156.459 40.3251 156.459 40.7058ZM162.543 44.6433V38.0979H163.548V44.6433H162.543ZM163.054 37.0069C162.858 37.0069 162.689 36.9402 162.547 36.8067C162.408 36.6731 162.338 36.5126 162.338 36.3251C162.338 36.1376 162.408 35.9771 162.547 35.8436C162.689 35.7101 162.858 35.6433 163.054 35.6433C163.25 35.6433 163.418 35.7101 163.557 35.8436C163.699 35.9771 163.77 36.1376 163.77 36.3251C163.77 36.5126 163.699 36.6731 163.557 36.8067C163.418 36.9402 163.25 37.0069 163.054 37.0069ZM170.027 39.5638L169.123 39.8194C169.067 39.6689 168.983 39.5226 168.872 39.3805C168.764 39.2356 168.616 39.1163 168.429 39.0226C168.241 38.9288 168.001 38.8819 167.709 38.8819C167.308 38.8819 166.974 38.9743 166.707 39.1589C166.443 39.3408 166.311 39.5723 166.311 39.8535C166.311 40.1035 166.402 40.301 166.584 40.4459C166.765 40.5908 167.05 40.7115 167.436 40.8081L168.407 41.0467C168.993 41.1888 169.429 41.4061 169.716 41.6987C170.003 41.9885 170.146 42.3621 170.146 42.8194C170.146 43.1944 170.038 43.5297 169.822 43.8251C169.609 44.1206 169.311 44.3535 168.927 44.524C168.544 44.6944 168.098 44.7797 167.589 44.7797C166.922 44.7797 166.369 44.6348 165.932 44.345C165.494 44.0552 165.217 43.6319 165.101 43.0751L166.055 42.8365C166.146 43.1888 166.318 43.453 166.571 43.6291C166.827 43.8052 167.16 43.8933 167.572 43.8933C168.041 43.8933 168.413 43.7939 168.689 43.595C168.967 43.3933 169.106 43.1518 169.106 42.8706C169.106 42.6433 169.027 42.453 168.868 42.2996C168.709 42.1433 168.464 42.0268 168.135 41.9501L167.044 41.6944C166.444 41.5524 166.004 41.3322 165.723 41.0339C165.444 40.7328 165.305 40.3564 165.305 39.9047C165.305 39.5354 165.409 39.2087 165.616 38.9246C165.827 38.6405 166.112 38.4175 166.473 38.2555C166.836 38.0936 167.248 38.0126 167.709 38.0126C168.356 38.0126 168.865 38.1547 169.234 38.4388C169.606 38.7229 169.871 39.0979 170.027 39.5638ZM176.518 44.6433L174.524 38.0979H175.58L176.995 43.1092H177.063L178.461 38.0979H179.535L180.916 43.0922H180.984L182.399 38.0979H183.455L181.461 44.6433H180.472L179.041 39.6149H178.938L177.507 44.6433H176.518ZM187.307 44.7797C186.676 44.7797 186.132 44.6405 185.675 44.3621C185.22 44.0808 184.869 43.6888 184.622 43.1859C184.378 42.6802 184.255 42.0922 184.255 41.4217C184.255 40.7513 184.378 40.1604 184.622 39.649C184.869 39.1348 185.213 38.7342 185.653 38.4473C186.096 38.1575 186.613 38.0126 187.204 38.0126C187.545 38.0126 187.882 38.0694 188.214 38.1831C188.547 38.2967 188.849 38.4814 189.122 38.7371C189.395 38.9899 189.612 39.3251 189.774 39.7427C189.936 40.1604 190.017 40.6746 190.017 41.2854V41.7115H184.971V40.8422H188.994C188.994 40.4729 188.92 40.1433 188.773 39.8535C188.628 39.5638 188.42 39.3351 188.15 39.1675C187.883 38.9998 187.568 38.916 187.204 38.916C186.804 38.916 186.457 39.0155 186.165 39.2143C185.875 39.4104 185.652 39.666 185.496 39.9814C185.339 40.2967 185.261 40.6348 185.261 40.9956V41.5751C185.261 42.0694 185.346 42.4885 185.517 42.8322C185.69 43.1731 185.93 43.4331 186.237 43.6121C186.544 43.7882 186.9 43.8763 187.307 43.8763C187.571 43.8763 187.809 43.8393 188.023 43.7655C188.238 43.6888 188.425 43.5751 188.581 43.4246C188.737 43.2712 188.858 43.0808 188.943 42.8535L189.915 43.1263C189.812 43.4558 189.64 43.7456 189.399 43.9956C189.157 44.2427 188.859 44.4359 188.504 44.5751C188.149 44.7115 187.75 44.7797 187.307 44.7797ZM194.291 44.7797C193.66 44.7797 193.116 44.6405 192.659 44.3621C192.204 44.0808 191.853 43.6888 191.606 43.1859C191.362 42.6802 191.24 42.0922 191.24 41.4217C191.24 40.7513 191.362 40.1604 191.606 39.649C191.853 39.1348 192.197 38.7342 192.638 38.4473C193.081 38.1575 193.598 38.0126 194.189 38.0126C194.53 38.0126 194.866 38.0694 195.199 38.1831C195.531 38.2967 195.834 38.4814 196.106 38.7371C196.379 38.9899 196.596 39.3251 196.758 39.7427C196.92 40.1604 197.001 40.6746 197.001 41.2854V41.7115H191.956V40.8422H195.978C195.978 40.4729 195.905 40.1433 195.757 39.8535C195.612 39.5638 195.405 39.3351 195.135 39.1675C194.868 38.9998 194.552 38.916 194.189 38.916C193.788 38.916 193.442 39.0155 193.149 39.2143C192.859 39.4104 192.636 39.666 192.48 39.9814C192.324 40.2967 192.246 40.6348 192.246 40.9956V41.5751C192.246 42.0694 192.331 42.4885 192.501 42.8322C192.675 43.1731 192.915 43.4331 193.221 43.6121C193.528 43.7882 193.885 43.8763 194.291 43.8763C194.555 43.8763 194.794 43.8393 195.007 43.7655C195.223 43.6888 195.409 43.5751 195.565 43.4246C195.721 43.2712 195.842 43.0808 195.927 42.8535L196.899 43.1263C196.797 43.4558 196.625 43.7456 196.383 43.9956C196.142 44.2427 195.844 44.4359 195.488 44.5751C195.133 44.7115 194.734 44.7797 194.291 44.7797ZM199.469 42.2569L199.452 41.0126H199.656L202.52 38.0979H203.764L200.713 41.1831H200.628L199.469 42.2569ZM198.531 44.6433V35.916H199.537V44.6433H198.531ZM202.69 44.6433L200.133 41.4047L200.849 40.7058L203.969 44.6433H202.69Z" fill="#171717"/>
<path d="M5.87089 78.0089V88.1907H3.7182V78.0089H5.87089ZM13.9559 82.7319L12.017 82.8512C11.9839 82.6855 11.9126 82.5363 11.8032 82.4037C11.6939 82.2679 11.5497 82.1601 11.3707 82.0806C11.1951 81.9977 10.9846 81.9563 10.7393 81.9563C10.4112 81.9563 10.1344 82.0259 9.90907 82.1651C9.68369 82.301 9.571 82.4833 9.571 82.712C9.571 82.8943 9.64392 83.0484 9.78975 83.1743C9.93558 83.3003 10.1858 83.4014 10.5405 83.4776L11.9226 83.756C12.665 83.9085 13.2185 84.1537 13.5831 84.4918C13.9477 84.8299 14.1299 85.274 14.1299 85.8242C14.1299 86.3247 13.9825 86.7638 13.6875 87.1417C13.3958 87.5195 12.9948 87.8145 12.4844 88.0266C11.9773 88.2354 11.3923 88.3398 10.7294 88.3398C9.71849 88.3398 8.91309 88.1294 8.31319 87.7084C7.7166 87.2842 7.36693 86.7075 7.26418 85.9783L9.34728 85.8689C9.41025 86.1772 9.56271 86.4125 9.80467 86.5749C10.0466 86.734 10.3565 86.8135 10.7344 86.8135C11.1056 86.8135 11.4039 86.7423 11.6292 86.5998C11.8579 86.4539 11.9739 86.2667 11.9773 86.038C11.9739 85.8457 11.8927 85.6883 11.7336 85.5657C11.5746 85.4397 11.3293 85.3436 10.9978 85.2773L9.6754 85.0138C8.92967 84.8647 8.3745 84.6062 8.00992 84.2383C7.64865 83.8704 7.46802 83.4014 7.46802 82.8313C7.46802 82.3408 7.60059 81.9182 7.86574 81.5635C8.13421 81.2089 8.51039 80.9355 8.9943 80.7432C9.48151 80.551 10.0516 80.4549 10.7045 80.4549C11.669 80.4549 12.428 80.6587 12.9815 81.0664C13.5383 81.4741 13.8631 82.0292 13.9559 82.7319ZM21.8173 82.7319L19.8784 82.8512C19.8452 82.6855 19.7739 82.5363 19.6646 82.4037C19.5552 82.2679 19.411 82.1601 19.232 82.0806C19.0564 81.9977 18.8459 81.9563 18.6007 81.9563C18.2725 81.9563 17.9958 82.0259 17.7704 82.1651C17.545 82.301 17.4323 82.4833 17.4323 82.712C17.4323 82.8943 17.5052 83.0484 17.6511 83.1743C17.7969 83.3003 18.0471 83.4014 18.4018 83.4776L19.7839 83.756C20.5263 83.9085 21.0798 84.1537 21.4444 84.4918C21.809 84.8299 21.9913 85.274 21.9913 85.8242C21.9913 86.3247 21.8438 86.7638 21.5488 87.1417C21.2571 87.5195 20.8561 87.8145 20.3457 88.0266C19.8386 88.2354 19.2536 88.3398 18.5907 88.3398C17.5798 88.3398 16.7744 88.1294 16.1745 87.7084C15.5779 87.2842 15.2283 86.7075 15.1255 85.9783L17.2086 85.8689C17.2716 86.1772 17.424 86.4125 17.666 86.5749C17.9079 86.734 18.2178 86.8135 18.5957 86.8135C18.9669 86.8135 19.2652 86.7423 19.4906 86.5998C19.7193 86.4539 19.8353 86.2667 19.8386 86.038C19.8353 85.8457 19.7541 85.6883 19.595 85.5657C19.4359 85.4397 19.1906 85.3436 18.8592 85.2773L17.5367 85.0138C16.791 84.8647 16.2358 84.6062 15.8712 84.2383C15.51 83.8704 15.3293 83.4014 15.3293 82.8313C15.3293 82.3408 15.4619 81.9182 15.7271 81.5635C15.9955 81.2089 16.3717 80.9355 16.8556 80.7432C17.3428 80.551 17.9129 80.4549 18.5659 80.4549C19.5303 80.4549 20.2893 80.6587 20.8428 81.0664C21.3997 81.4741 21.7245 82.0292 21.8173 82.7319ZM28.2219 84.9393V80.5543H30.3398V88.1907H28.3064V86.8036H28.2269C28.0545 87.251 27.7679 87.6107 27.3668 87.8824C26.9691 88.1542 26.4835 88.2901 25.9101 88.2901C25.3997 88.2901 24.9506 88.1741 24.5628 87.9421C24.175 87.7101 23.8718 87.3803 23.653 86.9527C23.4376 86.5252 23.3282 86.0131 23.3249 85.4165V80.5543H25.4428V85.0387C25.4461 85.4894 25.5671 85.8457 25.8057 86.1076C26.0444 86.3694 26.3642 86.5003 26.7652 86.5003C27.0205 86.5003 27.2591 86.4423 27.4812 86.3263C27.7032 86.207 27.8822 86.0313 28.0181 85.7993C28.1573 85.5673 28.2252 85.2806 28.2219 84.9393ZM35.514 88.3398C34.7285 88.3398 34.0524 88.1807 33.4856 87.8625C32.9221 87.5411 32.488 87.087 32.183 86.5003C31.8781 85.9104 31.7257 85.2127 31.7257 84.4073C31.7257 83.6218 31.8781 82.9324 32.183 82.3391C32.488 81.7458 32.9172 81.2835 33.4707 80.952C34.0275 80.6206 34.6804 80.4549 35.4295 80.4549C35.9333 80.4549 36.4023 80.5361 36.8364 80.6985C37.2739 80.8576 37.6551 81.0979 37.9799 81.4194C38.308 81.7409 38.5632 82.1452 38.7455 82.6324C38.9278 83.1163 39.019 83.6831 39.019 84.3327V84.9144H32.5708V83.6019H37.0254C37.0254 83.297 36.9591 83.0268 36.8265 82.7915C36.6939 82.5562 36.51 82.3723 36.2747 82.2397C36.0427 82.1038 35.7725 82.0358 35.4643 82.0358C35.1428 82.0358 34.8578 82.1104 34.6092 82.2596C34.3639 82.4054 34.1717 82.6026 34.0325 82.8512C33.8933 83.0965 33.822 83.3699 33.8187 83.6715V84.9194C33.8187 85.2972 33.8883 85.6237 34.0275 85.8988C34.17 86.1739 34.3705 86.386 34.6291 86.5351C34.8876 86.6843 35.1942 86.7589 35.5488 86.7589C35.7841 86.7589 35.9996 86.7257 36.1951 86.6594C36.3907 86.5931 36.558 86.4937 36.6972 86.3611C36.8364 86.2286 36.9425 86.0661 37.0154 85.8739L38.9742 86.0032C38.8748 86.4738 38.671 86.8848 38.3627 87.2361C38.0578 87.5841 37.6634 87.8559 37.1795 88.0515C36.6989 88.2437 36.1437 88.3398 35.514 88.3398ZM46.7548 82.7319L44.8159 82.8512C44.7827 82.6855 44.7114 82.5363 44.6021 82.4037C44.4927 82.2679 44.3485 82.1601 44.1695 82.0806C43.9939 81.9977 43.7834 81.9563 43.5382 81.9563C43.21 81.9563 42.9333 82.0259 42.7079 82.1651C42.4825 82.301 42.3698 82.4833 42.3698 82.712C42.3698 82.8943 42.4427 83.0484 42.5886 83.1743C42.7344 83.3003 42.9846 83.4014 43.3393 83.4776L44.7214 83.756C45.4638 83.9085 46.0173 84.1537 46.3819 84.4918C46.7465 84.8299 46.9288 85.274 46.9288 85.8242C46.9288 86.3247 46.7813 86.7638 46.4863 87.1417C46.1946 87.5195 45.7936 87.8145 45.2832 88.0266C44.7761 88.2354 44.1911 88.3398 43.5282 88.3398C42.5173 88.3398 41.7119 88.1294 41.112 87.7084C40.5154 87.2842 40.1658 86.7075 40.063 85.9783L42.1461 85.8689C42.2091 86.1772 42.3615 86.4125 42.6035 86.5749C42.8454 86.734 43.1553 86.8135 43.5332 86.8135C43.9044 86.8135 44.2027 86.7423 44.4281 86.5998C44.6568 86.4539 44.7728 86.2667 44.7761 86.038C44.7728 85.8457 44.6916 85.6883 44.5325 85.5657C44.3734 85.4397 44.1281 85.3436 43.7967 85.2773L42.4742 85.0138C41.7285 84.8647 41.1733 84.6062 40.8087 84.2383C40.4475 83.8704 40.2668 83.4014 40.2668 82.8313C40.2668 82.3408 40.3994 81.9182 40.6646 81.5635C40.933 81.2089 41.3092 80.9355 41.7931 80.7432C42.2803 80.551 42.8504 80.4549 43.5034 80.4549C44.4678 80.4549 45.2268 80.6587 45.7803 81.0664C46.3372 81.4741 46.662 82.0292 46.7548 82.7319ZM51.5424 88.1907V78.0089H58.2839V79.7837H53.6951V82.2098H57.8364V83.9847H53.6951V88.1907H51.5424ZM59.6921 88.1907V80.5543H61.81V88.1907H59.6921ZM60.756 79.5699C60.4411 79.5699 60.171 79.4655 59.9456 79.2567C59.7236 79.0446 59.6125 78.7911 59.6125 78.4961C59.6125 78.2044 59.7236 77.9542 59.9456 77.7454C60.171 77.5332 60.4411 77.4272 60.756 77.4272C61.0709 77.4272 61.3393 77.5332 61.5614 77.7454C61.7868 77.9542 61.8995 78.2044 61.8995 78.4961C61.8995 78.7911 61.7868 79.0446 61.5614 79.2567C61.3393 79.4655 61.0709 79.5699 60.756 79.5699ZM65.2764 80.5543L66.6784 83.2241L68.1152 80.5543H70.2878L68.0754 84.3725L70.3475 88.1907H68.1848L66.6784 85.5508L65.1969 88.1907H63.0094L65.2764 84.3725L63.0889 80.5543H65.2764ZM74.7523 88.3398C73.9668 88.3398 73.2906 88.1807 72.7239 87.8625C72.1604 87.5411 71.7262 87.087 71.4213 86.5003C71.1164 85.9104 70.9639 85.2127 70.9639 84.4073C70.9639 83.6218 71.1164 82.9324 71.4213 82.3391C71.7262 81.7458 72.1555 81.2835 72.709 80.952C73.2658 80.6206 73.9187 80.4549 74.6678 80.4549C75.1716 80.4549 75.6405 80.5361 76.0747 80.6985C76.5122 80.8576 76.8934 81.0979 77.2182 81.4194C77.5463 81.7409 77.8015 82.1452 77.9838 82.6324C78.1661 83.1163 78.2573 83.6831 78.2573 84.3327V84.9144H71.8091V83.6019H76.2637C76.2637 83.297 76.1974 83.0268 76.0648 82.7915C75.9322 82.5562 75.7483 82.3723 75.5129 82.2397C75.2809 82.1038 75.0108 82.0358 74.7026 82.0358C74.3811 82.0358 74.096 82.1104 73.8475 82.2596C73.6022 82.4054 73.41 82.6026 73.2708 82.8512C73.1315 83.0965 73.0603 83.3699 73.057 83.6715V84.9194C73.057 85.2972 73.1266 85.6237 73.2658 85.8988C73.4083 86.1739 73.6088 86.386 73.8673 86.5351C74.1259 86.6843 74.4324 86.7589 74.7871 86.7589C75.0224 86.7589 75.2378 86.7257 75.4334 86.6594C75.6289 86.5931 75.7963 86.4937 75.9355 86.3611C76.0747 86.2286 76.1808 86.0661 76.2537 85.8739L78.2125 86.0032C78.1131 86.4738 77.9092 86.8848 77.601 87.2361C77.2961 87.5841 76.9017 87.8559 76.4178 88.0515C75.9372 88.2437 75.382 88.3398 74.7523 88.3398ZM82.4533 88.315C81.8733 88.315 81.3479 88.1658 80.8773 87.8675C80.41 87.5659 80.0387 87.1234 79.7636 86.5401C79.4919 85.9535 79.356 85.2342 79.356 84.3824C79.356 83.5074 79.4968 82.7799 79.7786 82.1999C80.0603 81.6166 80.4348 81.1807 80.9021 80.8924C81.3728 80.6007 81.8882 80.4549 82.4483 80.4549C82.8759 80.4549 83.2322 80.5278 83.5172 80.6736C83.8056 80.8161 84.0376 80.9951 84.2132 81.2106C84.3922 81.4227 84.5281 81.6315 84.6209 81.837H84.6855V78.0089H86.7985V88.1907H84.7104V86.9677H84.6209C84.5215 87.1798 84.3806 87.3902 84.1983 87.5991C84.0193 87.8045 83.7857 87.9752 83.4973 88.1111C83.2123 88.247 82.8643 88.315 82.4533 88.315ZM83.1244 86.6296C83.4658 86.6296 83.7542 86.5368 83.9895 86.3512C84.2281 86.1623 84.4104 85.8988 84.5364 85.5607C84.6656 85.2226 84.7303 84.8266 84.7303 84.3725C84.7303 83.9184 84.6673 83.524 84.5413 83.1893C84.4154 82.8545 84.2331 82.596 83.9945 82.4137C83.7558 82.2314 83.4658 82.1402 83.1244 82.1402C82.7764 82.1402 82.4831 82.2347 82.2445 82.4236C82.0058 82.6125 81.8252 82.8744 81.7026 83.2091C81.5799 83.5439 81.5186 83.9317 81.5186 84.3725C81.5186 84.8166 81.5799 85.2094 81.7026 85.5508C81.8285 85.8888 82.0092 86.154 82.2445 86.3462C82.4831 86.5351 82.7764 86.6296 83.1244 86.6296Z" fill="#171717"/>
<path d="M13.2196 129.892C11.6136 129.892 10.1817 129.597 8.92416 129.006C7.67416 128.415 6.68174 127.6 5.94689 126.562C5.21204 125.525 4.82946 124.335 4.79916 122.994H9.57189C9.62492 123.896 10.0037 124.627 10.7083 125.187C11.4128 125.748 12.2499 126.028 13.2196 126.028C13.9923 126.028 14.6742 125.858 15.2651 125.517C15.8636 125.169 16.3295 124.687 16.6628 124.074C17.0037 123.453 17.1742 122.741 17.1742 121.937C17.1742 121.119 16.9999 120.4 16.6514 119.778C16.3105 119.157 15.837 118.672 15.231 118.324C14.6249 117.975 13.9317 117.797 13.1514 117.79C12.4696 117.79 11.8067 117.93 11.1628 118.21C10.5264 118.491 10.0302 118.873 9.67416 119.358L5.29916 118.574L6.40143 106.301H20.6287V110.324H10.4583L9.85598 116.153H9.99234C10.4014 115.578 11.0189 115.1 11.8446 114.722C12.6704 114.343 13.5946 114.153 14.6173 114.153C16.0189 114.153 17.2689 114.483 18.3673 115.142C19.4658 115.801 20.3333 116.706 20.9696 117.858C21.606 119.002 21.9204 120.32 21.9128 121.812C21.9204 123.381 21.5567 124.775 20.8219 125.994C20.0946 127.206 19.0757 128.161 17.7651 128.858C16.462 129.547 14.9469 129.892 13.2196 129.892ZM34.4696 130.085C32.5151 130.078 30.8333 129.597 29.4242 128.642C28.0226 127.687 26.9431 126.305 26.1855 124.494C25.4355 122.684 25.0643 120.506 25.0719 117.96C25.0719 115.422 25.4469 113.259 26.1969 111.472C26.9545 109.684 28.034 108.324 29.4355 107.392C30.8446 106.453 32.5226 105.983 34.4696 105.983C36.4166 105.983 38.0908 106.453 39.4923 107.392C40.9014 108.331 41.9848 109.695 42.7423 111.483C43.4999 113.263 43.8749 115.422 43.8673 117.96C43.8673 120.513 43.4886 122.695 42.731 124.506C41.981 126.316 40.9052 127.699 39.5037 128.653C38.1022 129.608 36.4242 130.085 34.4696 130.085ZM34.4696 126.006C35.8029 126.006 36.8673 125.335 37.6628 123.994C38.4583 122.653 38.8522 120.642 38.8446 117.96C38.8446 116.195 38.6628 114.725 38.2992 113.551C37.9431 112.377 37.4355 111.494 36.7764 110.903C36.1249 110.312 35.356 110.017 34.4696 110.017C33.1439 110.017 32.0833 110.68 31.2878 112.006C30.4923 113.331 30.0908 115.316 30.0833 117.96C30.0833 119.748 30.2613 121.241 30.6173 122.437C30.981 123.627 31.4923 124.521 32.1514 125.119C32.8105 125.71 33.5833 126.006 34.4696 126.006ZM56.5009 130.085C54.5463 130.078 52.8645 129.597 51.4554 128.642C50.0539 127.687 48.9744 126.305 48.2168 124.494C47.4668 122.684 47.0956 120.506 47.1031 117.96C47.1031 115.422 47.4781 113.259 48.2281 111.472C48.9857 109.684 50.0653 108.324 51.4668 107.392C52.8759 106.453 54.5539 105.983 56.5009 105.983C58.4478 105.983 60.1221 106.453 61.5236 107.392C62.9327 108.331 64.016 109.695 64.7736 111.483C65.5312 113.263 65.9062 115.422 65.8986 117.96C65.8986 120.513 65.5198 122.695 64.7622 124.506C64.0122 126.316 62.9365 127.699 61.535 128.653C60.1334 129.608 58.4554 130.085 56.5009 130.085ZM56.5009 126.006C57.8342 126.006 58.8986 125.335 59.694 123.994C60.4895 122.653 60.8834 120.642 60.8759 117.96C60.8759 116.195 60.694 114.725 60.3304 113.551C59.9744 112.377 59.4668 111.494 58.8077 110.903C58.1562 110.312 57.3872 110.017 56.5009 110.017C55.1751 110.017 54.1145 110.68 53.319 112.006C52.5236 113.331 52.1221 115.316 52.1145 117.96C52.1145 119.748 52.2925 121.241 52.6486 122.437C53.0122 123.627 53.5236 124.521 54.1827 125.119C54.8418 125.71 55.6145 126.006 56.5009 126.006ZM69.5435 129.574V106.301H74.4639V116.562H74.7708L83.1458 106.301H89.0435L80.4071 116.722L89.1458 129.574H83.2594L76.8844 120.006L74.4639 122.96V129.574H69.5435ZM97.0179 126.028V109.937H101.086V126.028H97.0179ZM91.0065 120.017V115.949H107.097V120.017H91.0065Z" fill="#081735"/>
</svg>
